<?xml version="1.0" encoding="utf-8"?>
<!-- Generator: Adobe Illustrator 28.1.0, SVG Export Plug-In . SVG Version: 6.00 Build 0)  -->
<svg version="1.1" id="Layer_1" xmlns="http://www.w3.org/2000/svg" xmlns:xlink="http://www.w3.org/1999/xlink" x="0px" y="0px"
	 viewBox="0 0 1080 1080" style="enable-background:new 0 0 1080 1080;" xml:space="preserve">
<style type="text/css">
	.st0{fill:#FFFFFF;}
	#BG{fill:#000000;}
</style>
<rect id="BG" y="0" width="1080" height="1080"/>
<g id="Tonan_Studio_Lockup">
	<g id="Tonan_Monogram_1">
		<path class="st0" d="M434.6,511.6l-34.9-20.2c-11.4-6.5-25.3-6.5-36.7,0L100.9,642.8c-0.8,0.5-1.1,1.6-0.7,2.4
			c0.5,0.8,1.6,1.1,2.4,0.7l52.4-30.3c10.3-5.9,22.9-5.9,33.2,0l35,20.2c11.4,6.5,25.3,6.5,36.7,0l69.9-40.4
			c15.9-9.2,36.2-3.7,45.4,12.2c2.9,5,4.4,10.8,4.4,16.6v181.6c-0.1,1,0.7,1.8,1.6,1.9c1,0.1,1.8-0.7,1.9-1.6c0-0.1,0-0.2,0-0.2
			v-60.5c0-11.9,6.3-22.8,16.6-28.7l34.9-20.2c11.3-6.6,18.3-18.7,18.3-31.8V543.4C453,530.3,446,518.2,434.6,511.6z"/>
		<path class="st0" d="M744.4,273.3c-0.5-0.8-1.6-1.1-2.4-0.6L540.5,389c-5.6,3.2-10.2,7.8-13.4,13.4l-60.5,104.8
			c-3.2,5.6-4.9,11.9-4.9,18.3v131.9c0,13.1,7,25.2,18.3,31.8l34.9,20.2c10.3,5.9,16.6,16.9,16.6,28.8v60.5c0.1,1,0.9,1.7,1.9,1.6
			c0.9-0.1,1.6-0.8,1.6-1.6V496.1c0-11.9,6.3-22.8,16.6-28.8l104.8-60.5c11.3-6.6,18.3-18.7,18.3-31.8v-40.4
			c0-11.9,6.3-22.8,16.6-28.8l52.4-30.3C744.7,275.2,744.9,274.1,744.4,273.3z"/>
	</g>
	<path class="st0" d="M614.6,537.9H591v-14.7h63.6v14.7h-23.2v76.5h-16.8V537.9z"/>
	<path class="st0" d="M652.2,581.1c0-20.1,15.5-34.7,35.2-34.7c19.4,0,35.1,14.7,35.1,34.7s-15.8,34.7-35.1,34.7
		C667.8,615.9,652.2,601.2,652.2,581.1z M705.8,581.1c0-11.5-7.7-20.1-18.3-20.1c-10.9,0-18.6,8.6-18.6,20.1
		c0,11.6,7.7,20.1,18.6,20.1C698.1,601.2,705.8,592.7,705.8,581.1z"/>
	<path class="st0" d="M734.6,547.8h15v8.2c3.5-6.4,10.5-9.7,18.8-9.7c14.7,0,25.1,10.3,25.1,25.2v42.8h-16v-39
		c0-8.8-5.5-14.3-13.5-14.3s-13.5,5.6-13.5,14.3v39h-16V547.8z"/>
	<path class="st0" d="M804.5,596.8c0-11,7.3-18.7,23-21.3l19.8-3.2v-2.2c0-5.7-4.9-10-12.2-10c-6.6-0.1-12.5,3.9-14.9,10l-13.1-6.4
		c3.9-10.4,15.3-17.4,28.6-17.4c16.3,0,27.6,9.8,27.6,23.7v44.3h-15.2v-7.1c-5.1,5.6-12,8.6-20.8,8.6
		C813.4,615.9,804.5,608.5,804.5,596.8z M830.3,603.6c10.2,0,17-7.2,17-16.4v-2.7l-16.8,2.8c-6.4,1.2-9.4,4-9.4,8.8
		C821.1,600.8,824.9,603.6,830.3,603.6z"/>
	<path class="st0" d="M878.1,547.8h15v8.2c3.6-6.4,10.5-9.7,18.8-9.7c14.7,0,25.1,10.3,25.1,25.2v42.8h-16v-39
		c0-8.8-5.5-14.3-13.5-14.3c-8,0-13.5,5.6-13.5,14.3v39h-16V547.8z"/>
	<path class="st0" d="M594.5,706.7l13.9-6c4.4,10.5,13.2,16.8,23.6,16.8c8.7,0,14.4-4.4,14.4-11.1c0-5.4-3.2-8.7-9.5-10.8l-17.5-5.6
		c-14.2-4.5-21.5-13.5-21.5-25.4c0-15.7,12.5-26.5,30.5-26.5c16.4,0,29.3,9.1,34.2,22.7l-13.7,6.1c-3.5-9.1-11.1-14.3-20.5-14.3
		c-8.4,0-14.1,4.5-14.1,11.3c0,5,3.3,9.1,9.9,11.1l16.8,5.3c14.6,4.7,21.8,13,21.8,25.2c0,15.7-13,26.7-31.7,26.7
		C613.7,732.1,599.3,721.9,594.5,706.7z"/>
	<path class="st0" d="M683,707.7v-29.3h-11.5V664h1.2c6.5,0,10.3-3.5,10.3-10v-5.1h16V664h15.3v14.3H699v28.5
		c0,6.7,3.4,10.4,11.3,10.4c1.4,0,2.9-0.1,4.3-0.4v13.7c-2.6,0.4-5.3,0.7-7.9,0.7C691.6,731.3,683,722.6,683,707.7z"/>
	<path class="st0" d="M725.5,704.8V664h16v39.4c0,8.4,5.5,13.9,13.5,13.9s13.5-5.5,13.5-14.3v-39h16.1v66.6h-15.2v-8
		c-3.7,6.2-10.4,9.4-18.7,9.4C734.9,732.1,725.5,721,725.5,704.8z"/>
	<path class="st0" d="M796.7,697.3c0-19.6,14.6-34.7,33.5-34.7c8.6,0,15.7,2.9,20.4,8.2V638h16v92.6h-15.2v-7.3
		c-4.9,5.8-12.6,8.8-21.2,8.8C811,732.1,796.7,716.9,796.7,697.3z M850.6,697.3c0-11.6-7.8-20.1-18.6-20.1
		c-10.9,0-18.7,8.6-18.7,20.1s7.8,20.1,18.7,20.1C842.8,717.4,850.6,709.1,850.6,697.3L850.6,697.3z"/>
	<path class="st0" d="M881.5,639.5h16v17.1h-16V639.5z M881.5,664h16v66.6h-16V664z"/>
	<path class="st0" d="M909.7,697.3c0-20.1,15.5-34.7,35.2-34.7c19.4,0,35.1,14.7,35.1,34.7s-15.8,34.7-35.1,34.7
		C925.3,732.1,909.7,717.4,909.7,697.3z M963.2,697.3c0-11.5-7.7-20.1-18.3-20.1c-10.9,0-18.6,8.6-18.6,20.1s7.7,20.1,18.6,20.1
		C955.6,717.4,963.2,708.9,963.2,697.3L963.2,697.3z"/>
</g>
</svg>
